<svg id="visual" viewBox="0 0 1980 150" width="1980" height="150" xmlns="http://www.w3.org/2000/svg" xmlns:xlink="http://www.w3.org/1999/xlink" version="1.1"><path d="M0 62L33 67.2C66 72.3 132 82.7 198 83C264 83.3 330 73.7 396 66.7C462 59.7 528 55.3 594 59.3C660 63.3 726 75.7 792 81.5C858 87.3 924 86.7 990 90.2C1056 93.7 1122 101.3 1188 98.2C1254 95 1320 81 1386 78.2C1452 75.3 1518 83.7 1584 82.8C1650 82 1716 72 1782 74C1848 76 1914 90 1947 97L1980 104L1980 151L1947 151C1914 151 1848 151 1782 151C1716 151 1650 151 1584 151C1518 151 1452 151 1386 151C1320 151 1254 151 1188 151C1122 151 1056 151 990 151C924 151 858 151 792 151C726 151 660 151 594 151C528 151 462 151 396 151C330 151 264 151 198 151C132 151 66 151 33 151L0 151Z" fill="#1f2937" stroke-linecap="round" stroke-linejoin="miter"></path></svg>