<svg id="visual" viewBox="0 0 1920 150" width="1920" height="150" xmlns="http://www.w3.org/2000/svg" xmlns:xlink="http://www.w3.org/1999/xlink" version="1.1"><path d="M0 61L45.7 66.5C91.3 72 182.7 83 274.2 85.2C365.7 87.3 457.3 80.7 548.8 73.7C640.3 66.7 731.7 59.3 823 59.5C914.3 59.7 1005.7 67.3 1097 76.8C1188.3 86.3 1279.7 97.7 1371.2 92.5C1462.7 87.3 1554.3 65.7 1645.8 63.8C1737.3 62 1828.7 80 1874.3 89L1920 98L1920 0L1874.3 0C1828.7 0 1737.3 0 1645.8 0C1554.3 0 1462.7 0 1371.2 0C1279.7 0 1188.3 0 1097 0C1005.7 0 914.3 0 823 0C731.7 0 640.3 0 548.8 0C457.3 0 365.7 0 274.2 0C182.7 0 91.3 0 45.7 0L0 0Z" fill="#1f2937" stroke-linecap="round" stroke-linejoin="miter"></path></svg>